# xmcd CD database file
# Copyright 1993-1996 (C) Ti Kan
#
# Track frame offsets:
#    150
#    22710
#    41047
#    60795
#    83842
#    107745
#    130092
#    148412
#    165987
#    186557
#    209107
#    225822
#    244505
#    260277
#    283405
#    298817
#    313947
#    332347
#
# Disc length: 4677 seconds
#
# Revision: 1
# Processed by: cddbd v1.4b41PL1 Copyright (c) Steve Scherf et al.
# Submitted via: MyCDplayer 2.1.9  (wjohn@fix.net)
#
DISCID=03124312
DTITLE=Lightnin' Hopkins - Complete Prestige/Bluesville - Disc 1
DYEAR=1900
DGENRE=
TTITLE0=Rocky Mountain
TTITLE1=Got To Move Your Baby
TTITLE2=So Sorry To Leave You
TTITLE3=Take A Trip With Me
TTITLE4=Last Night Blues
TTITLE5=Lightnin's Stroke
TTITLE6=Hard To Love A Woman
TTITLE7=Conversation Blues
TTITLE8=Automobile Blues
TTITLE9=You Better Watch Yourself
TTITLE10=Mean Old Frisco
TTITLE11=Shinin' Moon
TTITLE12=Come Back Baby
TTITLE13=Thinkin' 'Bout An Old Friend
TTITLE14=The Walkin' Blues
TTITLE15=Back To New Orleans
TTITLE16=Katie Mae
TTITLE17=Down There Baby
EXTD=
EXTT0=
EXTT1=
EXTT2=
EXTT3=
EXTT4=
EXTT5=
EXTT6=
EXTT7=
EXTT8=
EXTT9=
EXTT10=
EXTT11=
EXTT12=
EXTT13=
EXTT14=
EXTT15=
EXTT16=
EXTT17=
PLAYORDER=
